<?xml version="1.0" standalone="no"?>
<!DOCTYPE svg PUBLIC "-//W3C//DTD SVG 20010904//EN"
 "http://www.w3.org/TR/2001/REC-SVG-20010904/DTD/svg10.dtd">
<svg version="1.0" xmlns="http://www.w3.org/2000/svg"
 width="700.000000pt" height="700.000000pt" viewBox="0 0 700.000000 700.000000"
 preserveAspectRatio="xMidYMid meet">
<metadata>
Created by potrace 1.14, written by Peter Selinger 2001-2017
</metadata>
<g transform="translate(0.000000,700.000000) scale(0.100000,-0.100000)"
fill="#000000" stroke="none">
<path d="M3754 6990 c-185 -9 -264 -21 -264 -40 0 -5 53 -36 117 -70 313 -164
443 -319 474 -563 35 -280 -112 -628 -451 -1069 -201 -261 -446 -472 -808
-696 -143 -89 -718 -422 -802 -464 -81 -42 -120 -46 -154 -16 -91 78 18 379
216 594 27 29 35 44 25 44 -21 0 -264 -126 -366 -190 -130 -81 -158 -103 -275
-218 -679 -667 -1107 -1459 -1167 -2159 -30 -350 69 -809 262 -1221 80 -171
177 -298 319 -420 122 -104 143 -116 84 -47 -143 168 -236 359 -302 621 -56
223 -67 322 -66 614 0 223 4 288 23 410 86 557 268 990 580 1380 94 118 327
354 341 345 14 -9 4 -43 -52 -180 -58 -140 -69 -218 -31 -223 28 -4 96 31 156
80 26 22 47 38 47 35 0 -2 -16 -31 -35 -63 -76 -125 -100 -227 -92 -379 7
-128 24 -205 72 -330 68 -176 190 -333 318 -408 78 -46 192 -70 316 -65 97 3
113 6 176 37 50 25 94 58 156 120 100 100 134 148 163 233 19 56 25 63 56 71
44 11 59 24 134 120 106 136 126 168 126 198 0 65 -42 48 -155 -61 -67 -65
-88 -79 -131 -89 -40 -10 -62 -10 -95 -1 -102 28 -108 34 -368 357 -173 216
-296 342 -371 382 -34 18 -60 34 -58 36 2 2 39 27 83 56 147 96 329 194 510
273 99 44 423 201 720 351 297 149 612 305 700 347 244 115 413 237 573 413
162 179 263 384 290 591 l8 59 150 -150 c171 -170 276 -306 426 -547 183 -295
236 -392 307 -561 133 -321 193 -632 190 -990 -2 -160 1 -191 14 -204 24 -25
41 -5 110 131 l60 121 18 -80 c68 -310 84 -682 43 -1045 -74 -659 -312 -1260
-670 -1690 -148 -179 -396 -389 -571 -483 -97 -53 -84 -53 52 0 270 105 566
303 790 528 233 233 630 767 814 1092 154 272 234 513 215 648 l-7 50 -68
-143 c-37 -78 -73 -142 -79 -142 -6 0 -9 8 -6 18 47 158 67 461 47 718 -36
454 -177 1112 -328 1520 -45 124 -66 164 -78 152 -4 -4 -13 -92 -19 -197 -7
-105 -15 -193 -18 -197 -11 -10 -25 29 -48 131 -20 93 -21 116 -16 340 19 682
-56 1083 -248 1337 -346 459 -834 750 -1396 833 -135 20 -450 27 -686 15z
m-1874 -3406 c17 -15 54 -61 83 -103 28 -42 79 -106 114 -143 68 -73 425 -414
484 -463 98 -82 104 -133 32 -262 -67 -122 -146 -204 -240 -250 -120 -59 -204
-49 -343 43 -130 86 -209 192 -259 349 -102 319 -81 704 44 828 34 34 45 34
85 1z"/>
<path d="M4785 3446 c-174 -41 -397 -141 -817 -367 -175 -94 -335 -177 -356
-185 -71 -25 -107 -2 -157 96 -56 112 -91 124 -116 41 -8 -29 -6 -55 15 -140
25 -105 34 -121 73 -121 64 0 86 -32 133 -192 15 -53 34 -91 58 -119 50 -59
162 -134 256 -171 78 -31 86 -33 221 -33 132 0 145 2 232 32 50 18 147 60 215
94 121 60 125 63 269 207 224 226 253 301 229 590 -7 86 -11 166 -9 177 4 17
11 20 52 17 27 -2 47 0 47 6 0 12 -42 42 -85 61 -44 20 -189 23 -260 7z m132
-118 c44 -48 40 -110 -23 -329 -98 -346 -225 -510 -449 -582 -131 -43 -380
-61 -506 -37 -29 6 -84 24 -121 42 -89 41 -186 140 -217 222 -41 110 -22 157
82 212 40 20 151 82 247 137 407 232 715 353 906 356 51 1 64 -3 81 -21z"/>
<path d="M3087 2893 c-4 -3 -7 -15 -7 -27 0 -11 -12 -32 -26 -47 -33 -34 -24
-53 19 -43 18 5 48 8 67 8 46 1 49 21 8 74 -31 40 -47 50 -61 35z"/>
</g>
</svg>
