<?xml version="1.0" encoding="UTF-8" standalone="no"?>
<svg
   version="1.1"
   id="Layer_1"
   x="0px"
   y="0px"
   width="512"
   viewBox="0 0 512.00001 512"
   enable-background="new 0 0 512 512"
   xml:space="preserve"
   sodipodi:docname="sc_logo.svg"
   inkscape:export-filename="new.png"
   inkscape:export-xdpi="96"
   inkscape:export-ydpi="96"
   height="512"
   inkscape:version="1.3 (0e150ed6c4, 2023-07-21)"
   xmlns:inkscape="http://www.inkscape.org/namespaces/inkscape"
   xmlns:sodipodi="http://sodipodi.sourceforge.net/DTD/sodipodi-0.dtd"
   xmlns="http://www.w3.org/2000/svg"
   xmlns:svg="http://www.w3.org/2000/svg"><defs
   id="defs14" /><sodipodi:namedview
   id="namedview14"
   pagecolor="#ffffff"
   bordercolor="#000000"
   borderopacity="0.25"
   inkscape:showpageshadow="2"
   inkscape:pageopacity="0.0"
   inkscape:pagecheckerboard="0"
   inkscape:deskcolor="#d1d1d1"
   showguides="true"
   inkscape:zoom="0.70710678"
   inkscape:cx="120.91526"
   inkscape:cy="436.99199"
   inkscape:window-width="1876"
   inkscape:window-height="1036"
   inkscape:window-x="0"
   inkscape:window-y="0"
   inkscape:window-maximized="1"
   inkscape:current-layer="Layer_1" />&#10;&#10;&#10;&#10;&#10;&#10;&#10;&#10;&#10;&#10;&#10;&#10;&#10;&#10;<g
   id="g16"
   inkscape:label="g16"
   transform="matrix(1.2015739,0.04660363,-0.04024619,1.1638153,-47.318748,-46.548767)"><path
     id="path15"
     style="display:inline;fill:#b23421;fill-opacity:1"
     inkscape:label="red"
     d="m 284.44727,28.662109 c -10.73929,0.730965 -41.20749,1.951558 -31.73445,5.976956 16.75974,7.121747 30.60388,16.640697 34.42807,31.784085 6.59484,26.114841 -10.99504,54.5961 -26.22892,76.42863 -22.38974,32.08798 -60.521,52.039 -90.30134,72.33369 -22.02538,15.00985 -13.83234,-20.69749 2.07285,-36.65826 7.5469,-7.57327 -25.05471,11.418 -34.15571,21.26294 -33.46679,36.20246 -61.711266,81.9987 -68.64641,130.99073 -4.298979,30.36934 4.80028,62.68613 18.322116,89.9739 5.51477,11.12909 14.594494,20.48789 24.473854,27.77435 9.87528,7.28344 21.53241,12.4735 33.46772,14.96409 50.85442,10.61201 104.51897,7.04105 155.8328,-1.48424 19.80377,-3.2902 39.28424,-9.81088 57.3214,-18.94244 19.21704,-9.72889 40.65853,-21.8765 53.01358,-37.57536 17.12626,-21.76137 54.57402,-72.03014 43.92622,-108.43419 -1.59882,-5.46624 -1.77731,-2.47902 -5.1626,10.45783 -2.78344,10.63689 -25.47745,53.10304 -8.23516,9.38155 15.58113,-39.50928 -19.74679,-157.29682 -22.0314,-151.10545 -2.17456,5.89314 -1.09374,44.54196 -8.03624,13.05696 -1.95195,-8.85226 3.05362,-71.91453 -16.37985,-98.045386 C 371.24283,46.983715 332.49497,25.391765 284.44727,28.662109 Z"
     sodipodi:nodetypes="asaasssaaaaaassssssaa" /><path
     id="path25"
     style="display:inline;fill:#ff8f1f;fill-opacity:1"
     inkscape:label="orange"
     d="m 302.41815,462.15761 c 13.77734,-2.95198 22.54853,-6.56942 31.51592,-10.03301 9.90089,-3.82414 18.40612,-9.0611 31.64507,-19.30942 51.50196,-39.86785 61.37333,-133.00244 45.21527,-193.14485 -0.18227,-8.99968 -9.32037,28.57262 -11.38626,10.43782 1.63898,-35.29293 -9.67682,-70.34703 -29.84525,-99.14772 -10.58225,-17.89488 -23.40761,-34.82105 -39.90788,-47.67103 -1.25992,31.51783 -25.64828,56.82264 -52.68029,70.18146 -28.04067,14.41158 -54.09022,32.2939 -82.47757,46.088 -19.32094,9.72035 -36.71424,22.60323 -52.45011,37.3478 -18.8257,12.62363 4.08044,-24.24233 -2.34083,-23.18786 -36.7763,36.32318 -50.805089,80.42942 -52.522128,126.00368 -1.223098,32.46386 8.270527,74.69965 30.560668,92.12189 23.67196,18.50229 56.73085,16.23829 85.70113,18.62244 32.41835,1.30709 67.20158,-1.80646 98.97226,-8.3092 z"
     sodipodi:nodetypes="cssccccccccascc" /><path
     id="path26"
     style="display:inline;fill:#ffb81f;fill-opacity:1"
     inkscape:label="yellow"
     d="m 365.01219,396.73123 c 12.66947,-23.62032 14.96276,-52.6745 14.63152,-79.67177 -0.4973,-40.53097 -9.41948,-81.55268 -24.89123,-118.78047 -4.75024,-11.42991 -14.06996,-26.56668 -20.34253,-30.86766 -26.41012,37.38739 -69.13134,57.21794 -108.81398,77.26256 -23.46526,11.85285 -45.79938,25.89798 -67.5601,40.62742 -30.57952,20.69873 -44.37322,59.11776 -46.6537,94.75758 -1.54887,24.20618 -4.93755,47.90293 12.61735,67.33611 10.20047,11.29186 26.1525,17.47908 40.5819,19.59461 45.75478,6.70821 97.38672,6.69721 140.43647,-13.08151 24.78284,-11.38619 46.77351,-32.52871 59.9943,-57.17687 z"
     sodipodi:nodetypes="aaacsssssaa" /><path
     fill="#31251a"
     opacity="1"
     stroke="none"
     d="m 238.7345,290.6465 c 0.92001,0.95753 2.15812,1.86955 2.40762,3.17379 0.10316,0.53927 0.008,1.27141 -0.44086,1.58706 -0.7567,0.53168 -1.842,-0.22442 -2.76666,-0.20751 -1.80041,0.0329 -4.42425,2.13393 -5.36862,0.60073 -0.83038,-1.34813 1.97615,-2.52102 2.59559,-3.97817 0.46339,-1.09006 -0.3257,-3.08158 0.79561,-3.46318 1.13537,-0.38638 1.94639,1.42246 2.77732,2.28728 z"
     id="path9"
     style="display:inline;fill:#271e19;fill-opacity:1"
     inkscape:label="Nose"
     sodipodi:nodetypes="aaaaaaaa" /><path
     fill="#2d221b"
     opacity="1"
     stroke="none"
     d="m 156.30678,317.11237 c -9.79024,-12.03742 -15.24175,-27.99831 -15.04623,-43.26637 0.11323,-8.84189 3.94189,-17.63771 9.35218,-24.82464 2.33852,-3.21885 -0.0107,-7.22741 -3.08525,-8.80269 8.55932,-0.84968 17.43044,2.44051 23.32375,8.29116 11.12955,11.04899 22.48113,26.0255 30.96243,35.42752 3.89165,4.31412 11.59873,6.35882 17.20656,2.78262 4.29063,-2.73621 6.11393,-8.20466 10.52673,-10.4552 6.23154,-3.17809 2.45457,5.55198 0.34827,7.94023 -3.49496,3.9628 -5.74601,8.92464 -9.28935,12.84423 -1.76956,1.95746 -5.20939,-0.48662 -5.91536,5.26076 -0.74325,6.05082 -10.46249,19.59636 -19.82004,24.19006 -7.15545,3.51267 -16.258,2.93117 -23.90387,0.6773 -5.68558,-1.67601 -10.32123,-6.00814 -14.65982,-10.06496"
     id="path7"
     style="display:inline;fill:#271e19;fill-opacity:1"
     inkscape:label="Left Eye Back"
     sodipodi:nodetypes="caccsssssasaac" /><path
     id="path16"
     style="display:inline;fill:#cfbcb5;fill-opacity:1"
     inkscape:label="L1"
     d="m 158.51758,246.76758 c -2.75738,0.78813 -4.24143,4.10197 -5.3257,6.75691 -3.1487,7.7099 -3.60559,16.56099 -2.69188,24.83879 1.38144,12.51518 4.34159,25.89423 12.16249,35.76193 4.62055,5.82978 11.53694,10.98536 18.92871,11.8206 5.39823,0.60998 11.04449,-2.08531 15.40144,-5.3303 4.35492,-3.24348 7.18172,-8.31958 9.51381,-13.22333 1.40966,-2.96413 3.37915,-6.32403 2.57094,-9.50523 -1.31665,-5.18247 -7.28434,-7.83323 -11.0715,-11.60801 -8.60297,-8.57483 -18.18561,-16.16309 -26.45114,-25.06365 -4.0434,-4.35405 -6.42282,-10.37513 -11.27129,-13.81012 -0.51065,-0.36178 -1.16416,-0.80958 -1.76588,-0.63759 z"
     sodipodi:nodetypes="aaaaaaaaaaaa" /><path
     fill="#dcd3ca"
     opacity="1"
     stroke="none"
     d="m 184.6162,326.76417 c -6.64083,-0.11069 -12.12453,-3.7516 -17.24386,-7.63432 -8.37209,-6.34975 -12.57059,-16.728 -14.50107,-27.02516 -0.85529,-4.56208 -2.94985,-11.51635 -2.00037,-15.96152 0.88496,-4.14311 5.06498,-4.04029 9.11072,-3.86079 4.44439,0.19718 7.96793,3.46111 11.444,5.93856 7.30621,5.20724 14.09527,11.13148 20.59907,17.30371 5.31401,5.04309 9.50762,10.66692 8.88003,18.12882 -0.64213,7.63696 -12.29513,13.17726 -16.28852,13.1107 z"
     id="path11"
     style="display:inline;fill:#e7deda;fill-opacity:1"
     inkscape:label="L2"
     sodipodi:nodetypes="sssssssss" /><path
     fill="#2d231b"
     opacity="1"
     stroke="none"
     d="m 328.7522,314.77917 c -10.28991,6.18755 -21.89824,12.67206 -33.89557,12.19028 -9.61807,-0.38623 -19.52855,-5.08124 -26.30242,-11.92018 -4.55627,-4.60004 -4.13693,-12.43409 -7.8483,-17.76749 -2.31973,-3.33355 -7.37837,0.88372 -8.14675,-5.20689 -0.63179,-5.00795 -3.42181,-8.50152 -1.99388,-13.36743 1.94758,-6.63673 5.67951,0.6108 7.60936,4.87927 1.93389,4.27739 5.4139,6.07829 9.53775,3.77843 17.80916,-9.93215 34.40155,-21.93332 52.80292,-30.75399 9.96101,-4.7748 21.84211,-10.23924 32.12435,-6.53918 1.52463,0.54864 8.20769,3.95185 3.05332,3.78244 -1.43202,-0.0471 -4.6686,-0.85761 -4.58232,0.76612 0.54463,10.24979 3.82569,20.98157 0.91953,30.85071 -2.48619,8.44292 -9.17478,15.1251 -14.96436,21.75419 -2.46299,2.82013 -5.10483,5.6242 -8.31363,7.55372 z"
     id="path8"
     style="display:inline;fill:#271e19;fill-opacity:1"
     inkscape:label="Right Eye Back"
     sodipodi:nodetypes="aaassssssassaaa" /><path
     fill="#cfc2b5"
     opacity="1"
     stroke="none"
     d="m 286.38905,318.67452 c -6.73336,-1.29077 -13.30409,-5.56857 -17.28157,-11.15283 -2.57363,-3.6133 -4.62036,-8.73591 -3.16517,-12.92661 1.28536,-3.70163 5.96731,-5.12027 9.27052,-7.22812 19.12007,-12.20092 38.37331,-26.28647 60.55045,-31.04189 2.96453,-0.63568 6.94582,-1.68368 9.08382,0.46609 3.53817,3.55763 1.65785,10.11371 0.68884,15.03676 -2.7497,13.96983 -7.1255,29.92919 -17.97949,38.74522 -7.44632,6.04819 -27.43184,10.73444 -41.1674,8.10138 z"
     id="path14"
     style="display:inline;fill:#cfbcb5;fill-opacity:1"
     inkscape:label="R1"
     sodipodi:nodetypes="aaaaaaasa" /><path
     fill="#dcd3ca"
     opacity="1"
     stroke="none"
     d="m 324.02754,312.72449 c -8.65405,4.9324 -19.61748,6.52386 -29.59182,6.69819 -6.21818,0.10869 -13.81531,-1.19505 -20.29088,-6.55158 -0.84549,-0.69938 1.14753,-4.43821 2.28146,-6.4698 4.53283,-8.1212 10.34378,-15.85854 17.79162,-21.38062 8.72582,-6.46961 19.6698,-9.38633 30.02511,-12.66709 4.23136,-1.34058 8.55346,-3.68066 13.01105,-2.83315 3.08948,0.58739 1.84221,4.53546 1.1871,6.65063 -1.77677,5.73673 -5.54203,13.45279 -6.55956,21.26294 -1.30404,10.00917 -1.20448,11.50053 -7.85408,15.29048 z"
     id="path13"
     style="display:inline;fill:#e7deda;fill-opacity:1"
     inkscape:label="R2"
     sodipodi:nodetypes="sscsaassss" /></g>&#10;</svg>
